<svg width="210mm" height="297mm" version="1.1" viewBox="0 0 210 297" xmlns="http://www.w3.org/2000/svg">
 <g fill="none" stroke="#000">
  <path d="m89.165 57.684 3.4396 5.424 10.054 8.4667 1.1906 6.8792-1.1906 5.0271 0.92604 0.52917h1.4552l1.4552-0.26458 1.3229-5.9531 1.8521-5.0271 17.33-0.13229 5.9531 5.6885 1.8521 0.52917v3.9688l1.3229 0.26458 2.3812-0.13229 1.4552-4.7625-1.4552-5.6885 4.8948-3.7042 4.2333-5.424-6.0854-12.7-10.98-7.6729-27.517 2.7781-8.2021-4.6302-0.66146-1.8521-1.3229 1.5875-4.7625 0.13229-5.8208 2.7781-0.66146 1.5875-4.7625 5.2917 1.3229 5.424 4.101 2.249z" stroke-width=".26458px"/>
  <path d="m92.869 40.883-1.0582 2.6461" stroke-width=".26458px"/>
  <path d="m94.853 41.148-0.13211 2.6461" stroke-width=".26458px"/>
 </g>
</svg>
